<svg width="40" height="40" viewBox="0 0 40 40" fill="none" xmlns="http://www.w3.org/2000/svg">
<circle cx="20" cy="20" r="19.5" stroke="#8738EB"/>
<path d="M30.5 13.9999L28.25 14.3749L29.75 12.4999L27.125 13.2499C23.75 9.49987 18.5 13.6249 20 16.9999C14 16.9999 11 12.4999 11 12.4999C11 12.4999 8.75 15.8749 12.5 18.4999L10.25 17.7499C10.25 19.9999 11.75 21.4999 14.375 22.2499H11.75C13.25 25.2499 15.875 25.2499 15.875 25.2499C15.875 25.2499 13.625 27.1249 9.5 27.1249C21.875 33.1249 29.375 21.8749 28.25 15.8749L30.5 13.9999Z" fill="#8738EB"/>
</svg>
