<svg width="228" height="42" viewBox="0 0 228 42" fill="none" xmlns="http://www.w3.org/2000/svg">
<path d="M34.6779 23.4942V38.2739H42.9792C43.6409 38.2739 44.1489 38.4354 44.5026 38.7584C44.8563 39.0814 45.0338 39.4877 45.0338 39.9774C45.0338 40.467 44.8589 40.8798 44.5097 41.1892C44.1605 41.4987 43.6499 41.6531 42.9792 41.6531H33.0927C32.2008 41.6531 31.5597 41.4548 31.1693 41.0575C30.7783 40.6602 30.5835 40.0187 30.5835 39.1318V23.4929C30.5835 22.6615 30.7693 22.0387 31.1417 21.6227C31.514 21.2073 32.0034 20.9993 32.6104 20.9993C33.2175 20.9993 33.7249 21.2048 34.1068 21.6156C34.4882 22.0265 34.6792 22.6524 34.6792 23.4922L34.6779 23.4942Z" fill="white"/>
<path d="M47.8877 39.4929V23.4942C47.8877 22.6628 48.0761 22.04 48.4529 21.624C48.8298 21.2086 49.3172 21.0006 49.9146 21.0006C50.512 21.0006 51.0291 21.206 51.411 21.6169C51.7924 22.0277 51.9834 22.6537 51.9834 23.4935V39.4922C51.9834 40.3327 51.7924 40.9606 51.411 41.3759C51.0297 41.7913 50.5307 41.9993 49.9146 41.9993C49.2986 41.9993 48.8414 41.7894 48.46 41.3688C48.0787 40.9489 47.8877 40.323 47.8877 39.4922V39.4929Z" fill="white"/>
<path d="M61.8974 23.4664L69.7711 35.4348V23.3559C69.7711 22.5711 69.939 21.9826 70.2746 21.5898C70.6103 21.197 71.063 21.0013 71.6328 21.0013C72.2025 21.0013 72.6855 21.1977 73.0257 21.5898C73.3658 21.9826 73.5356 22.5711 73.5356 23.3559V39.3275C73.5356 41.1098 72.7999 42.0006 71.3293 42.0006C70.9614 42.0006 70.6309 41.9477 70.3364 41.8411C70.0425 41.7351 69.7666 41.5665 69.5087 41.3353C69.2515 41.1047 69.0123 40.834 68.7917 40.5252C68.5712 40.2158 68.3506 39.8999 68.13 39.5762L60.4493 27.7468V39.6454C60.4493 40.4212 60.2699 41.0078 59.9117 41.4044C59.5528 41.8017 59.0937 42 58.5329 42C57.9722 42 57.4892 41.7991 57.1401 41.3973C56.7909 40.9955 56.616 40.4115 56.616 39.6447V23.978C56.616 23.3133 56.6893 22.7913 56.8365 22.4128C57.0115 21.9974 57.3008 21.6576 57.7053 21.3947C58.1098 21.1318 58.5464 21 59.0152 21C59.3831 21 59.6975 21.0601 59.9599 21.1802C60.2216 21.3004 60.4518 21.4619 60.6493 21.6647C60.8467 21.8676 61.0492 22.1311 61.2557 22.4541C61.4627 22.7771 61.6762 23.1143 61.8968 23.4651V23.4664H61.8974Z" fill="white"/>
<path d="M96.4801 33.3979V37.29C96.4801 37.8075 96.4293 38.2203 96.3283 38.5297C96.2273 38.8391 96.0409 39.1182 95.7701 39.3675C95.4988 39.6169 95.1521 39.8572 94.729 40.0878C93.5065 40.7526 92.3297 41.2377 91.1992 41.542C90.0687 41.8469 88.8366 41.9993 87.5035 41.9993C85.9499 41.9993 84.5345 41.759 83.2568 41.279C81.979 40.7991 80.8896 40.1014 79.9887 39.1873C79.0878 38.2732 78.3958 37.1647 77.9135 35.863C77.4312 34.5607 77.1895 33.1066 77.1895 31.5C77.1895 29.8934 77.4242 28.4754 77.893 27.1641C78.3618 25.8527 79.0511 24.7403 79.9611 23.8256C80.871 22.9115 81.979 22.2119 83.2844 21.7267C84.5898 21.2422 86.0695 20.9993 87.7248 20.9993C89.0855 20.9993 90.2893 21.1815 91.3375 21.5465C92.3857 21.9115 93.2358 22.3708 93.8885 22.925C94.5412 23.4793 95.0332 24.0652 95.3637 24.6841C95.6949 25.3029 95.8602 25.852 95.8602 26.3327C95.8602 26.8501 95.6692 27.2907 95.2878 27.6557C94.9065 28.0206 94.4493 28.2028 93.9155 28.2028C93.6216 28.2028 93.3387 28.1337 93.0673 27.9948C92.796 27.8566 92.5683 27.6621 92.385 27.4128C91.8796 26.6188 91.452 26.0181 91.1028 25.6117C90.7536 25.2054 90.2822 24.8637 89.6893 24.5865C89.0964 24.3094 88.3402 24.1712 87.4212 24.1712C86.5023 24.1712 85.6284 24.3352 84.8843 24.6628C84.1397 24.9903 83.5031 25.4664 82.9745 26.0898C82.4459 26.7132 82.0414 27.4774 81.761 28.3824C81.4806 29.2874 81.3404 30.2894 81.3404 31.3882C81.3404 33.7706 81.8851 35.604 82.9745 36.8876C84.0638 38.1712 85.5827 38.8133 87.5318 38.8133C88.4784 38.8133 89.3678 38.6886 90.1999 38.4392C91.032 38.1899 91.8751 37.8346 92.7304 37.3727V34.0762H89.5588C88.7961 34.0762 88.2186 33.9606 87.8283 33.7299C87.4373 33.4993 87.2425 33.1066 87.2425 32.5523C87.2425 32.1001 87.4058 31.7261 87.7318 31.4302C88.0579 31.135 88.5016 30.9871 89.0623 30.9871H93.7091C94.2789 30.9871 94.7618 31.0381 95.1566 31.1395C95.5521 31.2409 95.8711 31.467 96.1148 31.8184C96.3585 32.1692 96.4801 32.6957 96.4801 33.3973V33.3979Z" fill="white"/>
<path d="M124.665 35.2403C124.665 35.8869 124.506 36.5865 124.189 37.3391C123.872 38.0917 123.373 38.8307 122.693 39.5555C122.012 40.2803 121.143 40.8688 120.086 41.3217C119.029 41.7739 117.798 42.0006 116.391 42.0006C115.324 42.0006 114.355 41.8992 113.481 41.6957C112.608 41.4922 111.815 41.1763 111.103 40.7467C110.39 40.3171 109.736 39.7519 109.137 39.0497C108.604 38.4128 108.149 37.6989 107.772 36.9095C107.395 36.1201 107.112 35.2771 106.924 34.3817C106.736 33.4858 106.641 32.5348 106.641 31.5284C106.641 29.894 106.878 28.4302 107.351 27.1376C107.824 25.8449 108.502 24.739 109.385 23.8197C110.267 22.9011 111.302 22.2015 112.488 21.7209C113.674 21.2409 114.938 21.0006 116.28 21.0006C117.917 21.0006 119.373 21.3281 120.651 21.9838C121.929 22.6395 122.907 23.4496 123.588 24.4147C124.268 25.3798 124.608 26.2913 124.608 27.1505C124.608 27.6214 124.443 28.0368 124.112 28.3973C123.781 28.7577 123.381 28.9373 122.912 28.9373C122.388 28.9373 121.995 28.8126 121.733 28.5633C121.471 28.3139 121.179 27.8843 120.857 27.2752C120.324 26.2687 119.697 25.5161 118.975 25.0174C118.254 24.5187 117.364 24.2693 116.307 24.2693C114.625 24.2693 113.285 24.9115 112.287 26.1951C111.29 27.4786 110.791 29.3023 110.791 31.6666C110.791 33.2454 111.011 34.5594 111.453 35.6072C111.894 36.6557 112.519 37.4379 113.328 37.9554C114.137 38.4728 115.083 38.7312 116.168 38.7312C117.345 38.7312 118.34 38.438 119.153 37.8514C119.967 37.2648 120.58 36.4037 120.994 35.2681C121.169 34.7325 121.385 34.2958 121.642 33.9593C121.9 33.6221 122.314 33.4535 122.884 33.4535C123.371 33.4535 123.789 33.624 124.138 33.9657C124.487 34.3075 124.662 34.7319 124.662 35.2403H124.665Z" fill="white"/>
<path d="M132.47 23.4942V29.312H141.309V23.4942C141.309 22.6628 141.494 22.0401 141.867 21.624C142.239 21.2087 142.728 21.0006 143.336 21.0006C143.943 21.0006 144.45 21.2061 144.832 21.6169C145.213 22.0278 145.404 22.6537 145.404 23.4935V39.4923C145.404 40.3327 145.211 40.9606 144.825 41.376C144.439 41.7913 143.943 41.9994 143.336 41.9994C142.728 41.9994 142.228 41.7894 141.86 41.3689C141.493 40.949 141.309 40.323 141.309 39.4923V32.6634H132.47V39.4923C132.47 40.3327 132.277 40.9606 131.89 41.376C131.504 41.7913 131.008 41.9994 130.401 41.9994C129.794 41.9994 129.293 41.7894 128.926 41.3689C128.558 40.949 128.374 40.323 128.374 39.4923V23.4935C128.374 22.6621 128.555 22.0394 128.919 21.6234C129.282 21.208 129.776 21 130.401 21C131.026 21 131.515 21.2054 131.897 21.6163C132.279 22.0271 132.47 22.6531 132.47 23.4929V23.4942Z" fill="white"/>
<path d="M162.737 39.3546L161.772 36.8062H153.553L152.588 39.4102C152.211 40.4257 151.89 41.1117 151.623 41.467C151.356 41.8223 150.919 42.0006 150.313 42.0006C149.798 42.0006 149.343 41.8114 148.948 41.4328C148.552 41.0543 148.355 40.6247 148.355 40.1447C148.355 39.8676 148.4 39.5814 148.492 39.2862C148.584 38.9909 148.736 38.5794 148.948 38.0536L154.119 24.8663C154.266 24.4877 154.443 24.0329 154.65 23.5019C154.857 22.9709 155.077 22.5297 155.311 22.1789C155.546 21.8282 155.853 21.5439 156.235 21.3269C156.617 21.1098 157.088 21.0013 157.649 21.0013C158.21 21.0013 158.695 21.1098 159.076 21.3269C159.457 21.5439 159.765 21.823 160 22.1647C160.235 22.5064 160.432 22.8734 160.593 23.2661C160.754 23.6589 160.958 24.1828 161.206 24.8385L166.488 37.9425C166.901 38.9399 167.108 39.6647 167.108 40.1176C167.108 40.5704 166.913 41.02 166.523 41.4128C166.132 41.8055 165.661 42.0013 165.109 42.0013C164.788 42.0013 164.512 41.9438 164.281 41.8282C164.052 41.7125 163.858 41.5555 163.702 41.3572C163.546 41.1589 163.378 40.854 163.199 40.4431C163.019 40.0323 162.865 39.6699 162.737 39.3559V39.3546ZM154.629 33.717H160.669L157.621 25.3366L154.629 33.717Z" fill="white"/>
<path d="M175.615 32.9683H174.181V39.4929C174.181 40.3514 173.993 40.9845 173.616 41.3908C173.239 41.7971 172.747 42 172.141 42C171.488 42 170.983 41.7874 170.624 41.363C170.265 40.9379 170.086 40.3146 170.086 39.4929V23.8682C170.086 22.9819 170.284 22.3398 170.679 21.9425C171.075 21.5452 171.713 21.3469 172.596 21.3469H179.257C180.176 21.3469 180.962 21.3863 181.615 21.4644C182.267 21.5432 182.856 21.7022 183.38 21.9425C184.014 22.2106 184.575 22.5936 185.062 23.0923C185.55 23.591 185.919 24.1705 186.172 24.8307C186.425 25.4909 186.551 26.1905 186.551 26.9295C186.551 28.4438 186.126 29.6537 185.276 30.5587C184.426 31.4638 183.137 32.1053 181.408 32.4845C182.134 32.8721 182.829 33.4451 183.49 34.2022C184.152 34.9593 184.743 35.7648 185.262 36.6195C185.782 37.4735 186.186 38.2448 186.476 38.9328C186.765 39.6208 186.91 40.0943 186.91 40.3527C186.91 40.6111 186.825 40.8863 186.654 41.1492C186.485 41.4121 186.252 41.6201 185.958 41.7726C185.664 41.925 185.324 42.0013 184.937 42.0013C184.478 42.0013 184.092 41.8927 183.779 41.6757C183.467 41.4586 183.198 41.1841 182.973 40.8514C182.748 40.5187 182.442 40.0297 182.056 39.383L180.415 36.6401C179.826 35.6337 179.3 34.8669 178.836 34.341C178.372 33.8146 177.9 33.4547 177.422 33.2603C176.945 33.0665 176.342 32.9696 175.616 32.9696V32.9683H175.615ZM177.959 24.4354H174.181V30.0174H177.849C178.833 30.0174 179.66 29.9321 180.331 29.7609C181.002 29.5904 181.515 29.2991 181.869 28.8882C182.222 28.4774 182.4 27.9115 182.4 27.1912C182.4 26.6279 182.257 26.1317 181.972 25.7022C181.687 25.2726 181.292 24.9522 180.786 24.7396C180.309 24.5368 179.366 24.4347 177.959 24.4347H177.959V24.4354Z" fill="white"/>
<path d="M208.516 33.3979V37.29C208.516 37.8075 208.466 38.2203 208.365 38.5297C208.264 38.8391 208.077 39.1182 207.806 39.3675C207.535 39.6169 207.189 39.8572 206.765 40.0878C205.543 40.7526 204.366 41.2377 203.236 41.542C202.105 41.8469 200.873 41.9993 199.54 41.9993C197.986 41.9993 196.571 41.759 195.293 41.279C194.015 40.7991 192.926 40.1014 192.025 39.1873C191.124 38.2732 190.432 37.1647 189.95 35.863C189.468 34.5607 189.226 33.1066 189.226 31.5C189.226 29.8934 189.461 28.4754 189.929 27.1641C190.398 25.8527 191.087 24.7403 191.997 23.8256C192.907 22.9115 194.015 22.2119 195.321 21.7267C196.626 21.2422 198.106 20.9993 199.761 20.9993C201.122 20.9993 202.326 21.1815 203.374 21.5465C204.422 21.9115 205.272 22.3708 205.925 22.925C206.578 23.4793 207.07 24.0652 207.4 24.6841C207.731 25.3029 207.897 25.852 207.897 26.3327C207.897 26.8501 207.706 27.2907 207.324 27.6557C206.943 28.0206 206.486 28.2028 205.952 28.2028C205.658 28.2028 205.375 28.1337 205.104 27.9948C204.832 27.8566 204.605 27.6621 204.421 27.4128C203.916 26.6188 203.488 26.0181 203.139 25.6117C202.79 25.2054 202.319 24.8637 201.726 24.5865C201.133 24.3094 200.377 24.1712 199.458 24.1712C198.539 24.1712 197.665 24.3352 196.921 24.6628C196.176 24.9903 195.539 25.4664 195.011 26.0898C194.482 26.7132 194.078 27.4774 193.797 28.3824C193.517 29.2874 193.377 30.2894 193.377 31.3882C193.377 33.7706 193.921 35.604 195.011 36.8876C196.1 38.1712 197.619 38.8133 199.568 38.8133C200.515 38.8133 201.404 38.6886 202.236 38.4392C203.068 38.1899 203.911 37.8346 204.767 37.3727V34.0762H201.595C200.832 34.0762 200.255 33.9606 199.865 33.7299C199.474 33.4993 199.279 33.1066 199.279 32.5523C199.279 32.1001 199.442 31.7261 199.768 31.4302C200.094 31.135 200.538 30.9871 201.099 30.9871H205.745C206.315 30.9871 206.798 31.0381 207.193 31.1395C207.588 31.2409 207.907 31.467 208.151 31.8184C208.395 32.1692 208.516 32.6957 208.516 33.3973V33.3979Z" fill="white"/>
<path d="M225.739 24.5187H216.514V29.5052H225.009C225.634 29.5052 226.101 29.646 226.408 29.9276C226.716 30.2093 226.87 30.5807 226.87 31.0426C226.87 31.5045 226.718 31.8805 226.414 32.1718C226.111 32.4625 225.642 32.6079 225.008 32.6079H216.514V38.3844H226.056C226.699 38.3844 227.184 38.5342 227.51 38.8346C227.836 39.135 227.999 39.5342 227.999 40.0329C227.999 40.5317 227.836 40.9031 227.51 41.2035C227.184 41.5039 226.699 41.6537 226.056 41.6537H214.928C214.036 41.6537 213.395 41.4554 213.005 41.0581C212.614 40.6609 212.419 40.0194 212.419 39.1324V23.8676C212.419 23.2765 212.506 22.7939 212.68 22.4199C212.855 22.0459 213.129 21.7733 213.501 21.6027C213.873 21.4322 214.349 21.3463 214.928 21.3463H225.738C226.391 21.3463 226.876 21.4916 227.193 21.7823C227.51 22.073 227.669 22.4541 227.669 22.9251C227.669 23.396 227.51 23.7907 227.193 24.0814C226.876 24.3721 226.391 24.5174 225.738 24.5174V24.5187H225.739Z" fill="white"/>
<path d="M14.3731 5.52973C14.2619 5.51939 14.1609 5.51228 14.0715 5.50647C14.1725 5.51228 14.2735 5.52004 14.3731 5.52973Z" fill="url(#paint0_linear_23_4487)"/>
<path d="M13.6033 5.49224C13.7338 5.49224 13.8637 5.49612 13.993 5.50193C13.7441 5.48901 13.6033 5.49224 13.6033 5.49224Z" fill="url(#paint1_linear_23_4487)"/>
<path d="M14.4734 5.53943C18.5575 5.97612 21.7387 9.44705 21.7387 13.6654C21.7387 14.8191 21.4995 15.9167 21.0699 16.9122C22.3946 17.7875 23.5586 18.8889 24.5058 20.1622C24.7077 20.4341 24.8994 20.7138 25.0814 21.0007C25.8884 7.761 17.2823 5.82044 14.4734 5.53943Z" fill="url(#paint2_linear_23_4487)"/>
<path d="M14.4734 5.53941C14.4399 5.53554 14.4065 5.53295 14.373 5.52972C14.4058 5.53295 14.4393 5.53618 14.4734 5.53941Z" fill="url(#paint3_linear_23_4487)"/>
<path d="M14.0716 5.50648C14.0453 5.50518 14.0195 5.50325 13.9932 5.50195C14.0182 5.50325 14.0446 5.50518 14.0716 5.50648Z" fill="url(#paint4_linear_23_4487)"/>
<path d="M24.5059 5.49225C22.0256 2.15827 18.0649 0 13.6034 0H0L5.46732 5.49225H13.6034C13.6034 5.49225 13.7442 5.48902 13.9931 5.50194C14.0194 5.50323 14.0458 5.50517 14.0715 5.50646C14.1609 5.51163 14.2619 5.51938 14.3731 5.52972C14.4065 5.53295 14.44 5.53553 14.4734 5.53941C17.2823 5.82041 25.8884 7.76098 25.0814 21.0006C26.426 18.8811 27.2061 16.365 27.2061 13.6654C27.2061 10.6008 26.2016 7.77196 24.5059 5.49225Z" fill="url(#paint5_linear_23_4487)"/>
<path d="M27.2061 13.6654C27.2061 10.6008 26.2016 7.77196 24.5059 5.49225C22.0256 2.15827 18.0649 0 13.6034 0H0L5.46732 5.49225H13.6034C13.6034 5.49225 13.7442 5.48902 13.9931 5.50194C14.0194 5.50323 14.0458 5.50517 14.0715 5.50646C14.1609 5.51163 14.2619 5.51938 14.3731 5.52972C14.4065 5.53295 14.44 5.53553 14.4734 5.53941C17.2823 5.82041 25.8884 7.76098 25.0814 21.0006C26.426 18.8811 27.2061 16.365 27.2061 13.6654Z" fill="url(#paint6_linear_23_4487)"/>
<path d="M25.0814 21.0008C24.8994 20.714 24.7078 20.4343 24.5059 20.1623C23.5586 18.889 22.3947 17.7876 21.07 16.9123C18.9266 15.4956 16.3608 14.67 13.6034 14.67H0V28.3354C0 32.818 2.14847 36.796 5.46732 39.2883C7.73605 40.9918 10.5527 42.0008 13.6034 42.0008C21.1163 42.0008 27.2067 35.8826 27.2067 28.3354C27.2067 25.6358 26.4267 23.1203 25.082 21.0008H25.0814ZM13.6027 36.5079C9.10963 36.5079 5.46668 32.849 5.46668 28.3348V20.1616H13.6027C14.8914 20.1616 16.1094 20.464 17.1923 20.9995C18.9196 21.8542 20.3009 23.3064 21.07 25.0874C21.4995 26.0828 21.7388 27.1804 21.7388 28.3341C21.7388 32.8477 18.0964 36.5073 13.6027 36.5073V36.5079Z" fill="url(#paint7_linear_23_4487)"/>
<path d="M5.46732 39.2875C7.73605 40.991 10.5527 42 13.6034 42C21.1163 42 27.2067 35.8818 27.2067 28.3346C27.2067 25.635 26.4267 23.1195 25.082 21C24.9001 20.7132 24.7084 20.4335 24.5065 20.1615C23.5593 18.8882 22.3953 17.7868 21.0706 16.9115C18.9273 15.4948 16.3615 14.6693 13.604 14.6693H0L5.46732 20.1615H13.6034C14.8921 20.1615 16.11 20.4638 17.1929 20.9994C18.9202 21.854 20.3015 23.3062 21.0706 25.0872C21.5002 26.0827 21.7394 27.1802 21.7394 28.334C21.7394 32.8475 18.0971 36.5071 13.6034 36.5071C13.6034 36.5071 6.10396 37.6034 0 28.0045V28.3346C0 32.8172 2.14847 36.7952 5.46732 39.2875Z" fill="url(#paint8_linear_23_4487)"/>
<defs>
<linearGradient id="paint0_linear_23_4487" x1="25.5547" y1="-9.22418" x2="-0.937479" y2="24.9279" gradientUnits="userSpaceOnUse">
<stop offset="0.38" stop-color="white"/>
<stop offset="0.66" stop-color="#EEEEEE"/>
<stop offset="1" stop-color="#E0E0E0"/>
</linearGradient>
<linearGradient id="paint1_linear_23_4487" x1="25.2788" y1="-9.4381" x2="-1.21356" y2="24.7135" gradientUnits="userSpaceOnUse">
<stop offset="0.38" stop-color="white"/>
<stop offset="0.66" stop-color="#EEEEEE"/>
<stop offset="1" stop-color="#E0E0E0"/>
</linearGradient>
<linearGradient id="paint2_linear_23_4487" x1="18.5568" y1="-0.645326" x2="21.2166" y2="25.714" gradientUnits="userSpaceOnUse">
<stop offset="0.44" stop-color="white"/>
<stop offset="0.48" stop-color="#F9F9F9"/>
<stop offset="0.6" stop-color="#EBEBEB"/>
<stop offset="0.76" stop-color="#E2E2E2"/>
<stop offset="1" stop-color="#E0E0E0"/>
</linearGradient>
<linearGradient id="paint3_linear_23_4487" x1="33.9564" y1="-19.8756" x2="-7.40448" y2="33.4429" gradientUnits="userSpaceOnUse">
<stop offset="0.38" stop-color="white"/>
<stop offset="0.66" stop-color="#EEEEEE"/>
<stop offset="1" stop-color="#E0E0E0"/>
</linearGradient>
<linearGradient id="paint4_linear_23_4487" x1="33.6966" y1="-20.0767" x2="-7.66294" y2="33.2419" gradientUnits="userSpaceOnUse">
<stop offset="0.38" stop-color="white"/>
<stop offset="0.66" stop-color="#EEEEEE"/>
<stop offset="1" stop-color="#E0E0E0"/>
</linearGradient>
<linearGradient id="paint5_linear_23_4487" x1="26.9006" y1="-8.18023" x2="0.407887" y2="25.9719" gradientUnits="userSpaceOnUse">
<stop offset="0.38" stop-color="white"/>
<stop offset="0.66" stop-color="#EEEEEE"/>
<stop offset="1" stop-color="#E0E0E0"/>
</linearGradient>
<linearGradient id="paint6_linear_23_4487" x1="34.0901" y1="18.2448" x2="-13.4741" y2="-10.1322" gradientUnits="userSpaceOnUse">
<stop offset="0.21" stop-color="white"/>
<stop offset="0.26" stop-color="#F9F9F9"/>
<stop offset="0.44" stop-color="#EBEBEB"/>
<stop offset="0.65" stop-color="#E2E2E2"/>
<stop offset="1" stop-color="#E0E0E0"/>
</linearGradient>
<linearGradient id="paint7_linear_23_4487" x1="13.6034" y1="41.8244" x2="13.6034" y2="11.4511" gradientUnits="userSpaceOnUse">
<stop offset="0.45" stop-color="white"/>
<stop offset="0.7" stop-color="#EEEEEE"/>
<stop offset="1" stop-color="#E0E0E0"/>
</linearGradient>
<linearGradient id="paint8_linear_23_4487" x1="29.8394" y1="28.3346" x2="3.10857" y2="28.3346" gradientUnits="userSpaceOnUse">
<stop offset="0.27" stop-color="white"/>
<stop offset="0.31" stop-color="#F9F9F9"/>
<stop offset="0.48" stop-color="#EBEBEB"/>
<stop offset="0.68" stop-color="#E2E2E2"/>
<stop offset="1" stop-color="#E0E0E0"/>
</linearGradient>
</defs>
</svg>
