<svg width="228" height="42" viewBox="0 0 228 42" fill="none" xmlns="http://www.w3.org/2000/svg">
<g clip-path="url(#clip0_205_382)">
<path d="M34.6779 23.4944V38.2741H42.9792C43.6409 38.2741 44.1489 38.4356 44.5026 38.7586C44.8563 39.0816 45.0338 39.4879 45.0338 39.9776C45.0338 40.4672 44.8589 40.88 44.5097 41.1894C44.1605 41.4989 43.6499 41.6533 42.9792 41.6533H33.0927C32.2008 41.6533 31.5597 41.455 31.1693 41.0577C30.7783 40.6604 30.5835 40.0189 30.5835 39.132V23.4931C30.5835 22.6617 30.7693 22.0389 31.1417 21.6229C31.514 21.2075 32.0034 20.9995 32.6104 20.9995C33.2175 20.9995 33.7249 21.205 34.1068 21.6158C34.4882 22.0267 34.6792 22.6526 34.6792 23.4924L34.6779 23.4944Z" fill="#8738EB"/>
<path d="M47.8877 39.4928V23.4941C47.8877 22.6627 48.0761 22.0399 48.4529 21.6239C48.8298 21.2085 49.3172 21.0005 49.9146 21.0005C50.512 21.0005 51.0291 21.2059 51.411 21.6168C51.7924 22.0276 51.9834 22.6536 51.9834 23.4934V39.4921C51.9834 40.3326 51.7924 40.9605 51.411 41.3758C51.0297 41.7912 50.5307 41.9992 49.9146 41.9992C49.2986 41.9992 48.8414 41.7893 48.46 41.3687C48.0787 40.9488 47.8877 40.3236 47.8877 39.4928Z" fill="#8738EB"/>
<path d="M61.8974 23.4664L69.7711 35.4348V23.3559C69.7711 22.5711 69.939 21.9826 70.2746 21.5898C70.6103 21.197 71.063 21.0013 71.6328 21.0013C72.2025 21.0013 72.6855 21.1977 73.0257 21.5898C73.3658 21.9826 73.5356 22.5711 73.5356 23.3559V39.3275C73.5356 41.1098 72.7999 42.0006 71.3293 42.0006C70.9614 42.0006 70.6309 41.9477 70.3364 41.8411C70.0425 41.7351 69.7666 41.5665 69.5087 41.3353C69.2515 41.1047 69.0123 40.834 68.7917 40.5252C68.5712 40.2158 68.3506 39.8999 68.13 39.5762L60.4493 27.7468V39.6454C60.4493 40.4212 60.2699 41.0078 59.9117 41.4044C59.5528 41.8017 59.0937 42 58.5329 42C57.9722 42 57.4892 41.7991 57.1401 41.3973C56.7909 40.9955 56.616 40.4115 56.616 39.6447V23.978C56.616 23.3133 56.6893 22.7913 56.8365 22.4128C57.0115 21.9974 57.3008 21.6576 57.7053 21.3947C58.1098 21.1318 58.5464 21 59.0152 21C59.3831 21 59.6975 21.0601 59.9599 21.1802C60.2216 21.3004 60.4518 21.4619 60.6493 21.6647C60.8467 21.8676 61.0492 22.1311 61.2557 22.4541C61.4627 22.7771 61.6762 23.1143 61.8968 23.4651L61.8974 23.4664Z" fill="#8738EB"/>
<path d="M96.4801 33.3981V37.2902C96.4801 37.8077 96.4293 38.2205 96.3283 38.5299C96.2273 38.8393 96.0409 39.1184 95.7701 39.3677C95.4988 39.6171 95.1521 39.8574 94.729 40.088C93.5065 40.7528 92.3297 41.2379 91.1992 41.5422C90.0687 41.8471 88.8366 41.9995 87.5035 41.9995C85.9499 41.9995 84.5345 41.7592 83.2568 41.2792C81.979 40.7993 80.8896 40.1016 79.9887 39.1875C79.0878 38.2734 78.3958 37.1649 77.9135 35.8632C77.4312 34.5609 77.1895 33.1068 77.1895 31.5002C77.1895 29.8936 77.4242 28.4756 77.893 27.1643C78.3618 25.8529 79.0511 24.7405 79.9611 23.8258C80.871 22.9117 81.979 22.2121 83.2844 21.7269C84.5898 21.2424 86.0695 20.9995 87.7248 20.9995C89.0855 20.9995 90.2893 21.1817 91.3375 21.5467C92.3857 21.9117 93.2358 22.371 93.8885 22.9252C94.5412 23.4795 95.0332 24.0654 95.3637 24.6843C95.6949 25.3031 95.8602 25.8522 95.8602 26.3329C95.8602 26.8503 95.6692 27.2909 95.2878 27.6559C94.9065 28.0208 94.4493 28.203 93.9155 28.203C93.6216 28.203 93.3387 28.1339 93.0673 27.995C92.796 27.8568 92.5683 27.6623 92.385 27.413C91.8796 26.619 91.452 26.0183 91.1028 25.6119C90.7536 25.2056 90.2822 24.8639 89.6893 24.5867C89.0964 24.3096 88.3402 24.1714 87.4212 24.1714C86.5023 24.1714 85.6284 24.3354 84.8843 24.663C84.1397 24.9905 83.5031 25.4666 82.9745 26.09C82.4459 26.7134 82.0414 27.4776 81.761 28.3826C81.4806 29.2876 81.3404 30.2896 81.3404 31.3884C81.3404 33.7708 81.8851 35.6042 82.9745 36.8878C84.0638 38.1714 85.5827 38.8135 87.5318 38.8135C88.4784 38.8135 89.3678 38.6888 90.1999 38.4394C91.032 38.1901 91.8751 37.8348 92.7304 37.3729V34.0764H89.5588C88.7961 34.0764 88.2186 33.9608 87.8283 33.7301C87.4373 33.4995 87.2425 33.1068 87.2425 32.5525C87.2425 32.1003 87.4058 31.7263 87.7318 31.4304C88.0579 31.1352 88.5016 30.9873 89.0623 30.9873H93.7091C94.2789 30.9873 94.7618 31.0383 95.1566 31.1397C95.5521 31.2411 95.8711 31.4672 96.1148 31.8186C96.3585 32.1694 96.4801 32.6965 96.4801 33.3981Z" fill="#8738EB"/>
<path d="M124.665 35.2402C124.665 35.8868 124.506 36.5864 124.189 37.339C123.872 38.0916 123.373 38.8306 122.693 39.5554C122.012 40.2802 121.143 40.8687 120.086 41.3216C119.029 41.7738 117.798 42.0005 116.391 42.0005C115.324 42.0005 114.355 41.8991 113.481 41.6956C112.608 41.4921 111.815 41.1762 111.103 40.7466C110.39 40.317 109.736 39.7518 109.137 39.0496C108.604 38.4127 108.149 37.6988 107.772 36.9094C107.395 36.12 107.112 35.277 106.924 34.3816C106.736 33.4857 106.641 32.5347 106.641 31.5283C106.641 29.8939 106.878 28.4301 107.351 27.1375C107.824 25.8448 108.502 24.7389 109.385 23.8196C110.267 22.901 111.302 22.2014 112.488 21.7208C113.674 21.2408 114.938 21.0005 116.28 21.0005C117.917 21.0005 119.373 21.328 120.651 21.9837C121.929 22.6394 122.907 23.4495 123.588 24.4146C124.268 25.3797 124.608 26.2912 124.608 27.1504C124.608 27.6213 124.443 28.0367 124.112 28.3972C123.781 28.7576 123.381 28.9372 122.912 28.9372C122.388 28.9372 121.995 28.8125 121.733 28.5632C121.471 28.3138 121.179 27.8842 120.857 27.2751C120.324 26.2686 119.697 25.516 118.975 25.0173C118.254 24.5186 117.364 24.2692 116.307 24.2692C114.625 24.2692 113.285 24.9114 112.287 26.195C111.29 27.4785 110.791 29.3022 110.791 31.6665C110.791 33.2453 111.011 34.5593 111.453 35.6071C111.894 36.6556 112.519 37.4378 113.328 37.9553C114.137 38.4727 115.083 38.7311 116.168 38.7311C117.345 38.7311 118.34 38.4379 119.153 37.8513C119.967 37.2647 120.58 36.4036 120.994 35.268C121.169 34.7324 121.385 34.2957 121.642 33.9592C121.9 33.622 122.314 33.4534 122.884 33.4534C123.371 33.4534 123.789 33.6239 124.138 33.9656C124.487 34.3074 124.662 34.7318 124.662 35.2402H124.665Z" fill="#8738EB"/>
<path d="M132.47 23.4942V29.312H141.309V23.4942C141.309 22.6628 141.494 22.0401 141.867 21.624C142.239 21.2087 142.728 21.0006 143.336 21.0006C143.943 21.0006 144.45 21.2061 144.832 21.6169C145.213 22.0278 145.404 22.6537 145.404 23.4935V39.4923C145.404 40.3327 145.211 40.9606 144.825 41.376C144.439 41.7913 143.943 41.9994 143.336 41.9994C142.728 41.9994 142.228 41.7894 141.86 41.3689C141.493 40.949 141.309 40.323 141.309 39.4923V32.6634H132.47V39.4923C132.47 40.3327 132.277 40.9606 131.89 41.376C131.504 41.7913 131.008 41.9994 130.401 41.9994C129.794 41.9994 129.293 41.7894 128.926 41.3689C128.558 40.949 128.374 40.323 128.374 39.4923V23.4935C128.374 22.6621 128.555 22.0394 128.919 21.6234C129.282 21.208 129.776 21 130.401 21C131.026 21 131.515 21.2054 131.897 21.6163C132.279 22.0271 132.47 22.6531 132.47 23.4929V23.4942Z" fill="#8738EB"/>
<path d="M162.737 39.3548L161.772 36.8064H153.553L152.588 39.4104C152.211 40.4259 151.89 41.1119 151.623 41.4672C151.356 41.8225 150.919 42.0008 150.313 42.0008C149.798 42.0008 149.343 41.8116 148.948 41.433C148.552 41.0545 148.355 40.6249 148.355 40.1449C148.355 39.8678 148.4 39.5816 148.492 39.2864C148.584 38.9911 148.736 38.5796 148.948 38.0538L154.119 24.8665C154.266 24.4879 154.443 24.0331 154.65 23.5021C154.857 22.9711 155.077 22.5299 155.311 22.1791C155.546 21.8284 155.853 21.5441 156.235 21.3271C156.617 21.11 157.088 21.0015 157.649 21.0015C158.21 21.0015 158.695 21.11 159.076 21.3271C159.457 21.5441 159.765 21.8232 160 22.1649C160.235 22.5066 160.432 22.8736 160.593 23.2663C160.754 23.6591 160.958 24.183 161.206 24.8387L166.488 37.9427C166.901 38.9401 167.108 39.6649 167.108 40.1178C167.108 40.5706 166.913 41.0202 166.523 41.413C166.132 41.8057 165.661 42.0015 165.109 42.0015C164.788 42.0015 164.512 41.944 164.281 41.8284C164.052 41.7127 163.858 41.5557 163.702 41.3574C163.546 41.1591 163.378 40.8542 163.199 40.4433C163.019 40.0325 162.865 39.6701 162.737 39.3561V39.3548ZM154.629 33.7172H160.669L157.621 25.3368L154.629 33.7172Z" fill="#8738EB"/>
<path d="M175.615 32.9681H174.181V39.4927C174.181 40.3512 173.993 40.9843 173.616 41.3906C173.239 41.7969 172.747 41.9998 172.141 41.9998C171.488 41.9998 170.983 41.7872 170.624 41.3628C170.265 40.9377 170.086 40.3144 170.086 39.4927V23.868C170.086 22.9817 170.284 22.3396 170.679 21.9423C171.075 21.545 171.713 21.3467 172.596 21.3467H179.257C180.176 21.3467 180.962 21.3861 181.615 21.4642C182.267 21.543 182.856 21.702 183.38 21.9423C184.014 22.2104 184.575 22.5934 185.062 23.0921C185.55 23.5908 185.919 24.1703 186.172 24.8305C186.425 25.4907 186.551 26.1903 186.551 26.9293C186.551 28.4436 186.126 29.6535 185.276 30.5585C184.426 31.4636 183.137 32.1051 181.408 32.4843C182.134 32.8719 182.829 33.4449 183.49 34.202C184.152 34.9591 184.743 35.7646 185.262 36.6193C185.782 37.4733 186.186 38.2446 186.476 38.9326C186.765 39.6206 186.91 40.0941 186.91 40.3525C186.91 40.6109 186.825 40.8861 186.654 41.149C186.485 41.4119 186.252 41.6199 185.958 41.7724C185.664 41.9248 185.324 42.0011 184.937 42.0011C184.478 42.0011 184.092 41.8925 183.779 41.6755C183.467 41.4584 183.198 41.1839 182.973 40.8512C182.748 40.5185 182.442 40.0295 182.056 39.3828L180.415 36.6399C179.826 35.6335 179.3 34.8667 178.836 34.3408C178.372 33.8144 177.9 33.4545 177.422 33.2601C176.945 33.0663 176.342 32.9694 175.616 32.9694L175.615 32.9681ZM177.959 24.4352H174.181V30.0172H177.849C178.833 30.0172 179.66 29.9319 180.331 29.7607C181.002 29.5902 181.515 29.2989 181.869 28.888C182.222 28.4772 182.4 27.9113 182.4 27.191C182.4 26.6277 182.257 26.1315 181.972 25.702C181.687 25.2724 181.292 24.952 180.786 24.7394C180.309 24.5366 179.366 24.4352 177.959 24.4352Z" fill="#8738EB"/>
<path d="M208.516 33.3981V37.2902C208.516 37.8077 208.466 38.2205 208.365 38.5299C208.264 38.8393 208.077 39.1184 207.806 39.3677C207.535 39.6171 207.189 39.8574 206.765 40.088C205.543 40.7528 204.366 41.2379 203.236 41.5422C202.105 41.8471 200.873 41.9995 199.54 41.9995C197.986 41.9995 196.571 41.7592 195.293 41.2792C194.015 40.7993 192.926 40.1016 192.025 39.1875C191.124 38.2734 190.432 37.1649 189.95 35.8632C189.468 34.5609 189.226 33.1068 189.226 31.5002C189.226 29.8936 189.461 28.4756 189.929 27.1643C190.398 25.8529 191.087 24.7405 191.997 23.8258C192.907 22.9117 194.015 22.2121 195.321 21.7269C196.626 21.2424 198.106 20.9995 199.761 20.9995C201.122 20.9995 202.326 21.1817 203.374 21.5467C204.422 21.9117 205.272 22.371 205.925 22.9252C206.578 23.4795 207.07 24.0654 207.4 24.6843C207.731 25.3031 207.897 25.8522 207.897 26.3329C207.897 26.8503 207.706 27.2909 207.324 27.6559C206.943 28.0208 206.486 28.203 205.952 28.203C205.658 28.203 205.375 28.1339 205.104 27.995C204.832 27.8568 204.605 27.6623 204.421 27.413C203.916 26.619 203.488 26.0183 203.139 25.6119C202.79 25.2056 202.319 24.8639 201.726 24.5867C201.133 24.3096 200.377 24.1714 199.458 24.1714C198.539 24.1714 197.665 24.3354 196.921 24.663C196.176 24.9905 195.539 25.4666 195.011 26.09C194.482 26.7134 194.078 27.4776 193.797 28.3826C193.517 29.2876 193.377 30.2896 193.377 31.3884C193.377 33.7708 193.921 35.6042 195.011 36.8878C196.1 38.1714 197.619 38.8135 199.568 38.8135C200.515 38.8135 201.404 38.6888 202.236 38.4394C203.068 38.1901 203.911 37.8348 204.767 37.3729V34.0764H201.595C200.832 34.0764 200.255 33.9608 199.865 33.7301C199.474 33.4995 199.279 33.1068 199.279 32.5525C199.279 32.1003 199.442 31.7263 199.768 31.4304C200.094 31.1352 200.538 30.9873 201.099 30.9873H205.745C206.315 30.9873 206.798 31.0383 207.193 31.1397C207.588 31.2411 207.907 31.4672 208.151 31.8186C208.395 32.1694 208.516 32.6965 208.516 33.3981Z" fill="#8738EB"/>
<path d="M225.739 24.5186H216.514V29.5051H225.009C225.634 29.5051 226.101 29.6459 226.408 29.9275C226.716 30.2092 226.87 30.5806 226.87 31.0425C226.87 31.5044 226.718 31.8804 226.414 32.1717C226.111 32.4624 225.642 32.6078 225.008 32.6078H216.514V38.3843H226.056C226.699 38.3843 227.184 38.5341 227.51 38.8345C227.836 39.1349 227.999 39.5341 227.999 40.0328C227.999 40.5316 227.836 40.903 227.51 41.2034C227.184 41.5038 226.699 41.6536 226.056 41.6536H214.928C214.036 41.6536 213.395 41.4553 213.005 41.058C212.614 40.6608 212.419 40.0193 212.419 39.1323V23.8675C212.419 23.2764 212.506 22.7938 212.68 22.4198C212.855 22.0458 213.129 21.7732 213.501 21.6026C213.873 21.4321 214.349 21.3462 214.928 21.3462H225.738C226.391 21.3462 226.876 21.4915 227.193 21.7822C227.51 22.0729 227.669 22.454 227.669 22.925C227.669 23.3959 227.51 23.7906 227.193 24.0813C226.876 24.372 226.391 24.5173 225.738 24.5173L225.739 24.5186Z" fill="#8738EB"/>
<path d="M14.3731 5.52961C14.2619 5.51927 14.1609 5.51216 14.0715 5.50635C14.1725 5.51216 14.2735 5.51992 14.3731 5.52961Z" fill="url(#paint0_linear_205_382)"/>
<path d="M13.6033 5.49206C13.7338 5.49206 13.8637 5.49594 13.993 5.50175C13.7441 5.48883 13.6033 5.49206 13.6033 5.49206Z" fill="url(#paint1_linear_205_382)"/>
<path d="M14.4734 5.53955C18.5575 5.97624 21.7387 9.44717 21.7387 13.6655C21.7387 14.8192 21.4995 15.9168 21.0699 16.9123C22.3946 17.7876 23.5586 18.889 24.5058 20.1623C24.7077 20.4342 24.8994 20.7139 25.0814 21.0008C25.8884 7.76112 17.2823 5.82056 14.4734 5.53955Z" fill="url(#paint2_linear_205_382)"/>
<path d="M14.0716 5.50648C14.0453 5.50518 14.0195 5.50325 13.9932 5.50195C14.0182 5.50325 14.0446 5.50518 14.0716 5.50648Z" fill="url(#paint3_linear_205_382)"/>
<path d="M24.5059 5.49225C22.0256 2.15827 18.0649 0 13.6034 0H0L5.46732 5.49225H13.6034C13.6034 5.49225 13.7442 5.48902 13.9931 5.50194C14.0194 5.50323 14.0458 5.50517 14.0715 5.50646C14.1609 5.51163 14.2619 5.51938 14.3731 5.52972C14.4065 5.53295 14.44 5.53553 14.4734 5.53941C17.2823 5.82041 25.8884 7.76098 25.0814 21.0006C26.426 18.8811 27.2061 16.365 27.2061 13.6654C27.2061 10.6008 26.2016 7.77196 24.5059 5.49225Z" fill="url(#paint4_linear_205_382)"/>
<path d="M27.2061 13.6654C27.2061 10.6008 26.2016 7.77196 24.5059 5.49225C22.0256 2.15827 18.0649 0 13.6034 0H0L5.46732 5.49225H13.6034C13.6034 5.49225 13.7442 5.48902 13.9931 5.50194C14.0194 5.50323 14.0458 5.50517 14.0715 5.50646C14.1609 5.51163 14.2619 5.51938 14.3731 5.52972C14.4065 5.53295 14.44 5.53553 14.4734 5.53941C17.2823 5.82041 25.8884 7.76098 25.0814 21.0006C26.426 18.8811 27.2061 16.365 27.2061 13.6654Z" fill="url(#paint5_linear_205_382)"/>
<path d="M25.0814 21.0007C24.8994 20.7139 24.7078 20.4342 24.5059 20.1622C23.5586 18.8889 22.3947 17.7875 21.07 16.9122C18.9266 15.4955 16.3608 14.6699 13.6034 14.6699H0V28.3353C0 32.8179 2.14847 36.7959 5.46732 39.2882C7.73605 40.9917 10.5527 42.0007 13.6034 42.0007C21.1163 42.0007 27.2067 35.8825 27.2067 28.3353C27.2067 25.6357 26.4261 23.1202 25.0814 21.0007ZM13.6027 36.5078C9.10963 36.5078 5.46668 32.8489 5.46668 28.3347V20.1615H13.6027C14.8914 20.1615 16.1094 20.4639 17.1923 20.9994C18.9196 21.8541 20.3009 23.3063 21.07 25.0873C21.4995 26.0827 21.7388 27.1803 21.7388 28.334C21.7388 32.8476 18.0964 36.5078 13.6027 36.5078Z" fill="url(#paint6_linear_205_382)"/>
<path d="M5.46732 39.2876C7.73605 40.9911 10.5527 42.0001 13.6034 42.0001C21.1163 42.0001 27.2067 35.8819 27.2067 28.3347C27.2067 25.6351 26.4267 23.1196 25.082 21.0001C24.9001 20.7133 24.7084 20.4336 24.5065 20.1616C23.5593 18.8883 22.3953 17.7869 21.0706 16.9116C18.9273 15.4949 16.3615 14.6694 13.604 14.6694H0L5.46732 20.1616H13.6034C14.8921 20.1616 16.11 20.4639 17.1929 20.9995C18.9202 21.8541 20.3015 23.3063 21.0706 25.0873C21.5002 26.0828 21.7394 27.1803 21.7394 28.3341C21.7394 32.8476 18.0971 36.5072 13.6034 36.5072C13.6034 36.5072 6.10396 37.6035 0 28.0046V28.3347C0 32.8173 2.14847 36.7953 5.46732 39.2876Z" fill="url(#paint7_linear_205_382)"/>
</g>
<defs>
<linearGradient id="paint0_linear_205_382" x1="25.5548" y1="-9.22407" x2="-0.936904" y2="24.9279" gradientUnits="userSpaceOnUse">
<stop offset="0.38" stop-color="white"/>
<stop offset="0.66" stop-color="#EEEEEE"/>
<stop offset="1" stop-color="#E0E0E0"/>
</linearGradient>
<linearGradient id="paint1_linear_205_382" x1="25.2788" y1="-9.4386" x2="-1.21429" y2="24.7132" gradientUnits="userSpaceOnUse">
<stop offset="0.38" stop-color="white"/>
<stop offset="0.66" stop-color="#EEEEEE"/>
<stop offset="1" stop-color="#E0E0E0"/>
</linearGradient>
<linearGradient id="paint2_linear_205_382" x1="18.5568" y1="-0.645205" x2="-15" y2="10.5" gradientUnits="userSpaceOnUse">
<stop offset="0.44" stop-color="#BC8CF8"/>
<stop offset="0.48" stop-color="#F9F9F9"/>
<stop offset="0.6" stop-color="#EBEBEB"/>
<stop offset="0.76" stop-color="#E2E2E2"/>
<stop offset="1" stop-color="#E0E0E0"/>
</linearGradient>
<linearGradient id="paint3_linear_205_382" x1="33.6965" y1="-20.0791" x2="-7.66801" y2="33.2406" gradientUnits="userSpaceOnUse">
<stop offset="0.38" stop-color="white"/>
<stop offset="0.66" stop-color="#EEEEEE"/>
<stop offset="1" stop-color="#E0E0E0"/>
</linearGradient>
<linearGradient id="paint4_linear_205_382" x1="26.9006" y1="-8.18023" x2="0.407886" y2="25.9719" gradientUnits="userSpaceOnUse">
<stop offset="0.38" stop-color="white"/>
<stop offset="0.66" stop-color="#EEEEEE"/>
<stop offset="1" stop-color="#E0E0E0"/>
</linearGradient>
<linearGradient id="paint5_linear_205_382" x1="34.0901" y1="18.2448" x2="-13.4741" y2="-10.1322" gradientUnits="userSpaceOnUse">
<stop offset="0.21" stop-color="#8738EB"/>
<stop offset="0.26" stop-color="#8C3DF1"/>
<stop offset="0.44" stop-color="#8240D6"/>
<stop offset="0.65" stop-color="#7733CE"/>
<stop offset="1" stop-color="#E0E0E0"/>
</linearGradient>
<linearGradient id="paint6_linear_205_382" x1="13.6034" y1="41.8243" x2="13.6034" y2="11.451" gradientUnits="userSpaceOnUse">
<stop offset="0.45" stop-color="#8738EB"/>
<stop offset="0.7" stop-color="#B493DF"/>
<stop offset="1" stop-color="#E0E0E0"/>
</linearGradient>
<linearGradient id="paint7_linear_205_382" x1="29.8394" y1="28.3347" x2="3.10857" y2="28.3347" gradientUnits="userSpaceOnUse">
<stop offset="0.27" stop-color="#8738EB"/>
<stop offset="0.31" stop-color="#8C36FA"/>
<stop offset="0.48" stop-color="#9A73CB"/>
<stop offset="0.68" stop-color="#BEA3E1"/>
<stop offset="1" stop-color="#BAA1DB"/>
</linearGradient>
<clipPath id="clip0_205_382">
<rect width="228" height="42" fill="white"/>
</clipPath>
</defs>
</svg>
