<svg width="403" height="519" viewBox="0 0 403 519" fill="none" xmlns="http://www.w3.org/2000/svg">
<g clip-path="url(#clip0_23_4369)">
<path d="M244.184 68.3316C242.804 68.2064 241.555 68.1124 240.45 68.0498C241.699 68.1187 242.947 68.2189 244.184 68.3316Z" fill="url(#paint0_linear_23_4369)"/>
<path d="M234.65 67.8682C236.267 67.8682 237.878 67.9121 239.476 67.9935C236.398 67.8307 234.65 67.8682 234.65 67.8682Z" fill="url(#paint1_linear_23_4369)"/>
<path d="M245.426 68.4507C295.963 73.8423 335.338 116.737 335.338 168.863C335.338 183.122 332.379 196.685 327.06 208.984C343.454 219.805 357.857 233.412 369.581 249.149C372.084 252.505 374.457 255.968 376.704 259.513C386.693 95.9036 280.187 71.9324 245.42 68.4569L245.426 68.4507Z" fill="url(#paint2_linear_23_4369)"/>
<path d="M245.426 68.4506C245.014 68.4068 244.595 68.3692 244.183 68.3317C244.583 68.3692 245.001 68.4068 245.426 68.4506Z" fill="url(#paint3_linear_23_4369)"/>
<path d="M240.45 68.0437C240.126 68.0249 239.801 67.9998 239.476 67.9873C239.788 68.0061 240.113 68.0249 240.45 68.0437Z" fill="url(#paint4_linear_23_4369)"/>
<path d="M369.581 67.8683C338.884 26.6701 289.87 0 234.651 0H66.301L133.963 67.8683H234.651C234.651 67.8683 236.399 67.8307 239.476 67.9935C239.801 68.006 240.126 68.0311 240.45 68.0499C241.555 68.1187 242.804 68.2064 244.184 68.3317C244.596 68.3692 245.014 68.4068 245.426 68.4506C280.193 71.9261 386.699 95.8973 376.711 259.506C393.355 233.318 403 202.221 403 168.863C403 130.996 390.57 96.035 369.581 67.8683Z" fill="url(#paint5_linear_23_4369)"/>
<path d="M403 168.863C403 130.996 390.57 96.035 369.581 67.8683C338.884 26.6701 289.87 0 234.651 0H66.301L133.963 67.8683H234.651C234.651 67.8683 236.399 67.8307 239.476 67.9935C239.801 68.006 240.126 68.0311 240.45 68.0499C241.555 68.1187 242.804 68.2064 244.184 68.3317C244.596 68.3692 245.014 68.4068 245.426 68.4506C280.193 71.9261 386.699 95.8973 376.711 259.506C393.355 233.318 403 202.221 403 168.863Z" fill="url(#paint6_linear_23_4369)"/>
<path d="M376.704 259.506C374.451 255.962 372.078 252.505 369.581 249.143C357.857 233.406 343.454 219.799 327.06 208.978C300.533 191.469 268.781 181.274 234.651 181.274H66.301V350.137C66.301 405.525 92.8901 454.689 133.963 485.479C162.044 506.532 196.893 519 234.651 519C327.628 519 403 443.398 403 350.137C403 316.779 393.348 285.694 376.711 259.506H376.704ZM234.651 451.132C179.044 451.132 133.963 405.913 133.963 350.137V249.143H234.651C250.595 249.143 265.672 252.875 279.07 259.5C300.452 270.064 317.545 288.005 327.054 310.016C332.366 322.315 335.332 335.878 335.332 350.137C335.332 405.913 290.251 451.132 234.644 451.132H234.651Z" fill="url(#paint7_linear_23_4369)"/>
<path d="M133.963 485.486C162.044 506.539 196.893 519.007 234.65 519.007C327.628 519.007 403 443.405 403 350.144C403 316.786 393.348 285.701 376.711 259.513C374.457 255.968 372.085 252.512 369.587 249.149C357.863 233.412 343.46 219.805 327.066 208.984C300.539 191.475 268.787 181.281 234.657 181.281H66.3009L133.963 249.149H234.65C250.595 249.149 265.672 252.881 279.07 259.506C300.452 270.071 317.545 288.011 327.054 310.023C332.366 322.321 335.332 335.885 335.332 350.144C335.332 405.92 290.251 451.138 234.644 451.138C234.644 451.138 141.835 464.683 66.2947 346.067V350.144C66.2947 405.532 92.8837 454.695 133.957 485.486H133.963Z" fill="url(#paint8_linear_23_4369)"/>
<path d="M48.6457 498.448V513.107C48.6457 515.224 48.1712 516.733 47.2285 517.641C46.2796 518.549 44.775 519 42.7086 519H6.75499C4.64485 519 3.12779 518.537 2.20382 517.61C1.27986 516.683 0.817871 515.18 0.817871 513.107V497.565C0.817871 495.273 0.961461 493.288 1.2424 491.61C1.52333 489.931 2.06648 488.422 2.87183 487.095C3.54607 485.961 4.40137 484.959 5.43147 484.083C6.46157 483.212 7.60404 482.542 8.85889 482.085C10.1137 481.628 11.431 481.396 12.8232 481.396C17.6054 481.396 21.1077 483.795 23.3302 488.598C25.3342 482.292 29.2237 479.142 35.0109 479.142C37.6892 479.142 40.0928 479.831 42.2404 481.202C44.3817 482.574 45.9675 484.433 46.9851 486.763C47.5969 488.222 48.0214 489.906 48.2711 491.804C48.5209 493.701 48.6457 495.918 48.6457 498.448ZM8.091 509.281H20.4584V500.383C20.4584 497.959 20.2274 496.093 19.7717 494.772C19.316 493.451 18.4419 492.443 17.1621 491.748C16.2506 491.203 15.2268 490.927 14.0968 490.927C11.6807 490.927 10.0763 491.791 9.28342 493.513C8.49055 495.235 8.091 497.866 8.091 501.397V509.281ZM27.4069 499.168V509.281H41.3726V498.842C41.3726 492.273 39.0127 488.992 34.293 488.992C31.8769 488.992 30.1289 489.844 29.0426 491.547C27.9563 493.25 27.4132 495.793 27.4132 499.174L27.4069 499.168Z" fill="white"/>
<path d="M5.87479 461.207H40.6859V441.507C40.6859 439.935 41.0667 438.733 41.8284 437.894C42.59 437.055 43.5452 436.635 44.7002 436.635C45.8551 436.635 46.8291 437.048 47.5532 437.881C48.2774 438.714 48.6458 439.923 48.6458 441.513V464.977C48.6458 467.094 48.1776 468.615 47.2411 469.542C46.3046 470.469 44.7938 470.932 42.7087 470.932H5.87479C3.91448 470.932 2.44737 470.488 1.47346 469.605C0.499547 468.722 0.00634766 467.557 0.00634766 466.117C0.00634766 464.677 0.493304 463.474 1.46097 462.566C2.42864 461.658 3.902 461.207 5.88104 461.207H5.87479Z" fill="white"/>
<path d="M43.5515 429.859H5.87479C3.91448 429.859 2.44737 429.415 1.47346 428.519C0.493304 427.624 0.00634766 426.472 0.00634766 425.05C0.00634766 423.629 0.493304 422.408 1.46097 421.5C2.42864 420.592 3.902 420.141 5.88104 420.141H43.564C45.543 420.141 47.0226 420.592 48.0028 421.5C48.9829 422.408 49.4699 423.591 49.4699 425.05C49.4699 426.509 48.9767 427.599 47.984 428.501C46.9914 429.409 45.518 429.859 43.564 429.859H43.5515Z" fill="white"/>
<path d="M5.80602 396.614L33.9933 377.928H5.54381C3.69587 377.928 2.30992 377.527 1.38595 376.732C0.461984 375.937 0 374.86 0 373.507C0 372.155 0.461984 371.009 1.38595 370.201C2.30992 369.393 3.69587 368.992 5.54381 368.992H43.1581C47.3534 368.992 49.4573 370.739 49.4573 374.227C49.4573 375.098 49.3324 375.887 49.0827 376.582C48.833 377.277 48.4334 377.934 47.8903 378.548C47.3471 379.162 46.7103 379.725 45.9799 380.251C45.2495 380.777 44.5065 381.297 43.7449 381.823L15.8823 400.052H43.9072C45.7364 400.052 47.1161 400.478 48.0526 401.33C48.989 402.181 49.4573 403.271 49.4573 404.605C49.4573 405.938 48.9828 407.078 48.0401 407.911C47.0974 408.744 45.7177 409.157 43.9135 409.157H7.01716C5.45016 409.157 4.22029 408.982 3.32753 408.631C2.34738 408.218 1.54827 407.529 0.930211 406.571C0.312151 405.613 0 404.573 0 403.465C0 402.594 0.14359 401.843 0.424526 401.223C0.705462 400.603 1.08629 400.058 1.567 399.589C2.04771 399.119 2.66577 398.637 3.42742 398.148C4.18907 397.66 4.98194 397.153 5.80602 396.627V396.614Z" fill="white"/>
<path d="M29.1986 314.543H38.3634C39.5808 314.543 40.5547 314.662 41.2851 314.9C42.0156 315.138 42.6711 315.583 43.2579 316.228C43.8448 316.873 44.4129 317.693 44.9561 318.701C46.5231 321.601 47.6655 324.394 48.3835 327.08C49.1014 329.767 49.4573 332.685 49.4573 335.853C49.4573 339.542 48.8892 342.898 47.7592 345.935C46.6292 348.966 44.9873 351.552 42.8334 353.694C40.6796 355.829 38.07 357.476 35.0047 358.616C31.9393 359.762 28.5119 360.332 24.7286 360.332C20.9454 360.332 17.6053 359.774 14.515 358.66C11.4247 357.545 8.80267 355.911 6.65507 353.75C4.50122 351.59 2.85306 348.96 1.71059 345.866C0.568116 342.767 0 339.254 0 335.327C0 332.096 0.430769 329.241 1.28606 326.754C2.1476 324.268 3.22765 322.252 4.53244 320.699C5.83723 319.146 7.21694 317.981 8.67781 317.199C10.1387 316.416 11.431 316.021 12.561 316.021C13.7784 316.021 14.8147 316.472 15.6762 317.38C16.5378 318.288 16.9623 319.372 16.9623 320.636C16.9623 321.332 16.8 322.008 16.4754 322.647C16.1507 323.285 15.695 323.83 15.1081 324.268C13.2352 325.471 11.8243 326.485 10.8691 327.312C9.91393 328.138 9.10858 329.259 8.45306 330.668C7.79754 332.077 7.47291 333.868 7.47291 336.054C7.47291 338.239 7.85997 340.306 8.63411 342.078C9.40824 343.85 10.5257 345.353 11.9929 346.612C13.46 347.87 15.258 348.828 17.3931 349.492C19.522 350.156 21.8818 350.488 24.4727 350.488C30.0852 350.488 34.3991 349.198 37.427 346.612C40.4486 344.025 41.9594 340.418 41.9594 335.797C41.9594 333.549 41.666 331.439 41.0791 329.466C40.4923 327.493 39.6557 325.49 38.5694 323.461H30.8031V330.988C30.8031 332.797 30.5284 334.169 29.9853 335.096C29.4421 336.022 28.5182 336.486 27.2134 336.486C26.1458 336.486 25.2655 336.097 24.5726 335.321C23.8796 334.544 23.53 333.492 23.53 332.165V321.137C23.53 319.785 23.6486 318.639 23.8858 317.7C24.1231 316.76 24.66 316.003 25.484 315.426C26.3081 314.85 27.5505 314.562 29.2049 314.562L29.1986 314.543Z" fill="white"/>
<path d="M33.5376 247.652C35.0609 247.652 36.709 248.028 38.4821 248.779C40.2551 249.531 41.9969 250.714 43.7012 252.33C45.4056 253.945 46.7978 256.006 47.8591 258.517C48.9267 261.028 49.4573 263.946 49.4573 267.29C49.4573 269.82 49.2201 272.124 48.7394 274.197C48.2586 276.27 47.5157 278.148 46.5044 279.839C45.493 281.53 44.1632 283.083 42.5088 284.504C41.0105 285.769 39.3249 286.853 37.4707 287.742C35.6103 288.637 33.625 289.307 31.5148 289.752C29.4047 290.197 27.1635 290.422 24.7911 290.422C20.9392 290.422 17.493 289.858 14.4464 288.737C11.3998 287.617 8.79646 286.007 6.63013 283.909C4.4638 281.818 2.81564 279.363 1.68565 276.545C0.555664 273.734 -0.0124512 270.734 -0.0124512 267.547C-0.0124512 263.664 0.761684 260.208 2.30371 257.17C3.84574 254.14 5.75611 251.816 8.02857 250.201C10.301 248.585 12.4486 247.777 14.4714 247.777C15.5826 247.777 16.5565 248.172 17.4056 248.955C18.2547 249.737 18.6792 250.689 18.6792 251.804C18.6792 253.05 18.3858 253.983 17.7989 254.603C17.2121 255.223 16.2007 255.918 14.7648 256.682C12.3924 257.947 10.6194 259.437 9.44574 261.147C8.27205 262.856 7.6852 264.973 7.6852 267.478C7.6852 271.473 9.19602 274.648 12.2176 277.015C15.2393 279.382 19.5345 280.566 25.1033 280.566C28.8241 280.566 31.9144 280.039 34.3866 278.994C36.8526 277.948 38.7006 276.464 39.918 274.541C41.1353 272.619 41.7472 270.377 41.7472 267.797C41.7472 265.004 41.0542 262.643 39.6745 260.715C38.2948 258.786 36.2658 257.327 33.5875 256.344C32.3264 255.931 31.2963 255.417 30.5035 254.803C29.7106 254.19 29.3111 253.213 29.3111 251.86C29.3111 250.702 29.7106 249.712 30.516 248.879C31.3213 248.053 32.3202 247.633 33.5189 247.633L33.5376 247.652Z" fill="white"/>
<path d="M5.87479 229.129H19.572V208.151H5.87479C3.91448 208.151 2.44737 207.706 1.47346 206.823C0.493304 205.941 0.00634766 204.776 0.00634766 203.335C0.00634766 201.895 0.493304 200.693 1.46097 199.785C2.42864 198.877 3.902 198.426 5.88104 198.426H43.564C45.543 198.426 47.0226 198.883 48.0028 199.797C48.9829 200.712 49.4699 201.889 49.4699 203.329C49.4699 204.77 48.9767 205.959 47.984 206.83C46.9914 207.7 45.518 208.138 43.564 208.138H27.4819V229.116H43.564C45.543 229.116 47.0226 229.574 48.0028 230.488C48.9829 231.402 49.4699 232.579 49.4699 234.02C49.4699 235.46 48.9767 236.65 47.984 237.52C46.9914 238.391 45.518 238.829 43.564 238.829H5.87479C3.91448 238.829 2.44737 238.397 1.47346 237.539C0.499547 236.681 0.00634766 235.504 0.00634766 234.02C0.00634766 232.535 0.493304 231.377 1.46097 230.469C2.42864 229.561 3.902 229.11 5.88104 229.11L5.87479 229.129Z" fill="white"/>
<path d="M43.2269 157.303L37.2211 159.595V179.101L43.3517 181.393C45.7428 182.289 47.3598 183.053 48.1963 183.685C49.0329 184.318 49.4512 185.357 49.4512 186.791C49.4512 188.012 49.0079 189.096 48.1152 190.029C47.2224 190.968 46.211 191.438 45.0811 191.438C44.4255 191.438 43.7513 191.331 43.0583 191.112C42.3653 190.893 41.3914 190.536 40.1553 190.035L9.09623 177.761C8.20348 177.411 7.13592 176.991 5.88107 176.503C4.63247 176.014 3.58988 175.488 2.7658 174.931C1.94172 174.373 1.26747 173.641 0.761789 172.739C0.256104 171.837 -0.00610352 170.716 -0.00610352 169.383C-0.00610352 168.049 0.249861 166.903 0.761789 165.995C1.27372 165.087 1.92924 164.36 2.73459 163.803C3.53994 163.246 4.40147 162.776 5.32544 162.394C6.24941 162.012 7.48553 161.53 9.02756 160.935L39.8931 148.405C42.2405 147.422 43.9511 146.933 45.0124 146.933C46.0737 146.933 47.1413 147.396 48.0652 148.323C48.9892 149.25 49.4512 150.371 49.4512 151.68C49.4512 152.444 49.3138 153.095 49.0454 153.646C48.7769 154.197 48.4023 154.648 47.9341 155.017C47.4659 155.387 46.7479 155.788 45.7803 156.213C44.8126 156.639 43.9573 157.003 43.2206 157.309L43.2269 157.303ZM29.9479 176.546V162.213L10.2075 169.445L29.9479 176.546Z" fill="white"/>
<path d="M28.1873 126.738V130.138H43.5514C45.5741 130.138 47.0662 130.583 48.0214 131.478C48.9766 132.374 49.4573 133.539 49.4573 134.979C49.4573 136.526 48.9579 137.728 47.959 138.579C46.9601 139.431 45.493 139.857 43.5576 139.857H6.75499C4.66982 139.857 3.15276 139.387 2.22255 138.448C1.2861 137.509 0.817871 135.993 0.817871 133.902V118.096C0.817871 115.917 0.911517 114.051 1.09256 112.498C1.27986 110.951 1.65444 109.555 2.21631 108.309C2.84686 106.806 3.75209 105.472 4.92578 104.313C6.09947 103.155 7.4667 102.278 9.02121 101.677C10.5757 101.076 12.2239 100.775 13.9657 100.775C17.5305 100.775 20.3835 101.784 22.5124 103.8C24.6413 105.816 26.1583 108.878 27.0448 112.98C27.9563 111.258 29.3048 109.611 31.0903 108.039C32.8758 106.468 34.7737 105.065 36.784 103.831C38.7942 102.598 40.6109 101.64 42.2341 100.951C43.8573 100.262 44.9686 99.9175 45.5804 99.9175C46.1922 99.9175 46.8352 100.118 47.4533 100.525C48.0714 100.926 48.5646 101.477 48.9204 102.178C49.2763 102.879 49.4573 103.681 49.4573 104.602C49.4573 105.691 49.2013 106.612 48.6894 107.351C48.1775 108.089 47.5282 108.728 46.7478 109.267C45.9675 109.799 44.8125 110.525 43.2892 111.446L36.8277 115.341C34.4553 116.737 32.6511 117.984 31.415 119.086C30.1726 120.188 29.3298 121.302 28.8678 122.442C28.4121 123.576 28.1811 125.003 28.1811 126.732L28.1873 126.738ZM8.091 121.177V130.144H21.2388V121.44C21.2388 119.104 21.039 117.144 20.6332 115.548C20.2337 113.957 19.547 112.736 18.5793 111.897C17.6116 111.058 16.2819 110.638 14.5837 110.638C13.254 110.638 12.0865 110.976 11.0752 111.653C10.0638 112.329 9.30839 113.268 8.80895 114.464C8.32823 115.598 8.091 117.833 8.091 121.171V121.177Z" fill="white"/>
<path d="M29.1986 48.6562H38.3634C39.5808 48.6562 40.5547 48.7752 41.2851 49.0132C42.0156 49.2511 42.6711 49.6958 43.2579 50.3407C43.8448 50.9857 44.4129 51.8061 44.9561 52.8143C46.5231 55.7136 47.6655 58.5065 48.3835 61.1929C49.1014 63.8793 49.4573 66.7975 49.4573 69.9661C49.4573 73.6544 48.8892 77.0109 47.7592 80.048C46.6292 83.0788 44.9873 85.6651 42.8334 87.8067C40.6796 89.9421 38.07 91.589 35.0047 92.7287C31.9393 93.8746 28.5119 94.4445 24.7286 94.4445C20.9454 94.4445 17.6053 93.8871 14.515 92.7725C11.4247 91.6579 8.80267 90.0235 6.65507 87.863C4.50122 85.7026 2.85306 83.0726 1.71059 79.9791C0.568116 76.8794 0 73.3664 0 69.44C0 66.2088 0.430769 63.3533 1.28606 60.8673C2.1476 58.3812 3.22765 56.3649 4.53244 54.8119C5.83723 53.2651 7.21694 52.0941 8.67781 51.3114C10.1387 50.5286 11.431 50.1341 12.561 50.1341C13.7784 50.1341 14.8147 50.585 15.6762 51.493C16.5378 52.401 16.9623 53.4843 16.9623 54.7492C16.9623 55.4443 16.8 56.1206 16.4754 56.7594C16.1507 57.4044 15.695 57.9429 15.1081 58.3812C13.2352 59.5836 11.8243 60.598 10.8691 61.4246C9.91393 62.2512 9.10858 63.3721 8.45306 64.7811C7.79754 66.19 7.47291 67.981 7.47291 70.1665C7.47291 72.3519 7.85997 74.4184 8.63411 76.1906C9.40824 77.9627 10.5257 79.4656 11.9929 80.7243C13.46 81.9767 15.258 82.9411 17.3931 83.6048C19.522 84.2686 21.8818 84.6005 24.4727 84.6005C30.0852 84.6005 34.3991 83.3105 37.427 80.7243C40.4486 78.1381 41.9594 74.5311 41.9594 69.9097C41.9594 67.6616 41.666 65.5513 41.0791 63.5788C40.4923 61.6062 39.6557 59.6023 38.5694 57.5734H30.8031V65.1004C30.8031 66.9102 30.5284 68.2816 29.9853 69.2083C29.4421 70.1351 28.5182 70.5985 27.2134 70.5985C26.1458 70.5985 25.2655 70.2103 24.5726 69.4338C23.8796 68.6573 23.53 67.6053 23.53 66.2777V55.2502C23.53 53.8976 23.6486 52.7516 23.8858 51.8123C24.1231 50.873 24.66 50.1153 25.484 49.5392C26.3081 48.9631 27.5505 48.675 29.2049 48.675L29.1986 48.6562Z" fill="white"/>
<path d="M8.28453 7.78371V29.6759H20.0277V9.5183C20.0277 8.03419 20.3585 6.9258 21.0203 6.1994C21.6821 5.46674 22.5561 5.10354 23.6486 5.10354C24.7412 5.10354 25.6214 5.46048 26.3082 6.18062C26.9949 6.90075 27.3383 8.0154 27.3383 9.5183V29.6759H40.9418V7.03226C40.9418 5.50431 41.2977 4.35209 42.0031 3.58186C42.7086 2.80536 43.6513 2.41711 44.825 2.41711C45.9987 2.41711 46.8727 2.80536 47.5844 3.58186C48.2961 4.35835 48.6457 5.50431 48.6457 7.03226V33.4394C48.6457 35.556 48.1775 37.0776 47.241 38.0044C46.3046 38.9312 44.7938 39.3946 42.7086 39.3946H6.75499C5.3628 39.3946 4.22656 39.188 3.3463 38.7747C2.46603 38.3614 1.823 37.7101 1.42344 36.8272C1.02389 35.9442 0.817871 34.817 0.817871 33.4394V7.78371C0.817871 6.23697 1.16124 5.08475 1.84797 4.33331C2.5347 3.58186 3.42746 3.20613 4.53872 3.20613C5.64998 3.20613 6.58019 3.58186 7.26068 4.33331C7.94117 5.08475 8.29078 6.23697 8.29078 7.78371H8.28453Z" fill="white"/>
</g>
<defs>
<linearGradient id="paint0_linear_23_4369" x1="382.561" y1="-113.984" x2="55.3135" y2="308.513" gradientUnits="userSpaceOnUse">
<stop offset="0.38" stop-color="white"/>
<stop offset="0.66" stop-color="#EEEEEE"/>
<stop offset="1" stop-color="#E0E0E0"/>
</linearGradient>
<linearGradient id="paint1_linear_23_4369" x1="379.145" y1="-116.634" x2="51.8894" y2="305.87" gradientUnits="userSpaceOnUse">
<stop offset="0.38" stop-color="white"/>
<stop offset="0.66" stop-color="#EEEEEE"/>
<stop offset="1" stop-color="#E0E0E0"/>
</linearGradient>
<linearGradient id="paint2_linear_23_4369" x1="295.963" y1="-7.97157" x2="328.78" y2="317.755" gradientUnits="userSpaceOnUse">
<stop offset="0.44" stop-color="white"/>
<stop offset="0.48" stop-color="#F9F9F9"/>
<stop offset="0.6" stop-color="#EBEBEB"/>
<stop offset="0.76" stop-color="#E2E2E2"/>
<stop offset="1" stop-color="#E0E0E0"/>
</linearGradient>
<linearGradient id="paint3_linear_23_4369" x1="486.53" y1="-245.596" x2="-24.3525" y2="414.004" gradientUnits="userSpaceOnUse">
<stop offset="0.38" stop-color="white"/>
<stop offset="0.66" stop-color="#EEEEEE"/>
<stop offset="1" stop-color="#E0E0E0"/>
</linearGradient>
<linearGradient id="paint4_linear_23_4369" x1="483.322" y1="-248.104" x2="-27.6056" y2="411.508" gradientUnits="userSpaceOnUse">
<stop offset="0.38" stop-color="white"/>
<stop offset="0.66" stop-color="#EEEEEE"/>
<stop offset="1" stop-color="#E0E0E0"/>
</linearGradient>
<linearGradient id="paint5_linear_23_4369" x1="399.217" y1="-101.082" x2="71.9675" y2="321.413" gradientUnits="userSpaceOnUse">
<stop offset="0.38" stop-color="white"/>
<stop offset="0.66" stop-color="#EEEEEE"/>
<stop offset="1" stop-color="#E0E0E0"/>
</linearGradient>
<linearGradient id="paint6_linear_23_4369" x1="488.192" y1="225.459" x2="-99.983" y2="-125.985" gradientUnits="userSpaceOnUse">
<stop offset="0.21" stop-color="white"/>
<stop offset="0.26" stop-color="#F9F9F9"/>
<stop offset="0.44" stop-color="#EBEBEB"/>
<stop offset="0.65" stop-color="#E2E2E2"/>
<stop offset="1" stop-color="#E0E0E0"/>
</linearGradient>
<linearGradient id="paint7_linear_23_4369" x1="234.651" y1="516.827" x2="234.651" y2="141.498" gradientUnits="userSpaceOnUse">
<stop offset="0.45" stop-color="white"/>
<stop offset="0.7" stop-color="#EEEEEE"/>
<stop offset="1" stop-color="#E0E0E0"/>
</linearGradient>
<linearGradient id="paint8_linear_23_4369" x1="435.589" y1="350.137" x2="104.777" y2="350.137" gradientUnits="userSpaceOnUse">
<stop offset="0.27" stop-color="white"/>
<stop offset="0.31" stop-color="#F9F9F9"/>
<stop offset="0.48" stop-color="#EBEBEB"/>
<stop offset="0.68" stop-color="#E2E2E2"/>
<stop offset="1" stop-color="#E0E0E0"/>
</linearGradient>
<clipPath id="clip0_23_4369">
<rect width="403" height="519" fill="white"/>
</clipPath>
</defs>
</svg>
